<?xml version="1.0" encoding="UTF-8" standalone="no"?>
<svg
   xmlns:dc="http://purl.org/dc/elements/1.1/"
   xmlns:cc="http://creativecommons.org/ns#"
   xmlns:rdf="http://www.w3.org/1999/02/22-rdf-syntax-ns#"
   xmlns:svg="http://www.w3.org/2000/svg"
   xmlns="http://www.w3.org/2000/svg"
   xmlns:sodipodi="http://sodipodi.sourceforge.net/DTD/sodipodi-0.dtd"
   xmlns:inkscape="http://www.inkscape.org/namespaces/inkscape"
   sodipodi:docname="logo-note.svg"
   inkscape:version="1.0beta2 (2b71d25, 2019-12-03)"
   id="svg8"
   version="1.1"
   viewBox="0 0 25 25"
   height="25mm"
   width="25mm">
  <style
     id="style18" />
  <defs
     id="defs2" />
  <sodipodi:namedview
     inkscape:window-maximized="0"
     inkscape:window-y="23"
     inkscape:window-x="1"
     inkscape:window-height="728"
     inkscape:window-width="1280"
     fit-margin-bottom="0"
     fit-margin-right="0"
     fit-margin-left="0"
     fit-margin-top="0"
     showgrid="false"
     inkscape:document-rotation="0"
     inkscape:current-layer="layer1"
     inkscape:document-units="mm"
     inkscape:cy="54.227795"
     inkscape:cx="66.45979"
     inkscape:zoom="2.3162177"
     inkscape:pageshadow="2"
     inkscape:pageopacity="0.0"
     borderopacity="1.0"
     bordercolor="#666666"
     pagecolor="#ffffff"
     id="base" />
  <metadata
     id="metadata5">
    <rdf:RDF>
      <cc:Work
         rdf:about="">
        <dc:format>image/svg+xml</dc:format>
        <dc:type
           rdf:resource="http://purl.org/dc/dcmitype/StillImage" />
        <dc:title></dc:title>
      </cc:Work>
    </rdf:RDF>
  </metadata>
  <g
     transform="translate(-72.673175,-71.243152)"
     id="layer1"
     inkscape:groupmode="layer"
     inkscape:label="Layer 1">
    <path
       sodipodi:nodetypes="ccssscscccssccccsccscscscccccccccccc"
       style="fill:#ffffff;fill-opacity:1;stroke-width:0.217781"
       inkscape:connector-curvature="0"
       d="m 83.982184,86.998242 c 0.34844,-0.196004 0.74045,-0.413785 1.08892,-0.609789 -0.19602,-0.631566 -0.39201,-1.437359 -0.39201,-2.417377 v -9.451728 c 0,-0.544455 0.43555,-0.95824 0.95823,-0.95824 1.5027,0 1.98181,1.350248 2.41737,2.526269 0.13067,0.34845 -0.34844,0.653345 -0.0436,0.653345 0.32666,0 0.43556,0.08711 0.60978,0.217781 l 0.0218,0.02178 v 0 c 0,0 0.0436,0.02178 0.43557,0.02178 h 0.93646 c 0.41379,0 0.76225,0.261339 0.89291,0.631566 l 0.0871,0.152448 c 0.23956,0.479119 0.0435,1.045353 -0.43557,1.284911 -0.34845,0.174226 -0.76224,0.108891 -1.06713,-0.130668 h -0.43557 c -0.74045,0 -1.15424,-0.152448 -1.37201,-0.261338 -0.52269,-0.108892 -0.82758,-0.47912 -1.08892,-0.980017 v 6.31567 c 0,0.914685 0.26134,1.698699 0.43556,2.286709 0.15245,0.435563 0.26134,0.805793 0.26134,1.154244 0,0.675122 0.10895,1.045352 0.19601,1.328468 0.0871,0.283116 0.15245,0.5009 0.15245,0.805792 0,2.352043 -0.0436,2.373822 -1.41559,3.288505 -0.17423,0.130669 -0.392,0.261339 -0.63156,0.435563 h -0.0218 c -0.58801,0.413787 -1.74225,0.631568 -2.80938,0.60979 -1.11068,-0.04356 -2.24314,-0.348451 -2.76582,-1.023575 l -0.0218,-0.04356 c -1.241361,-1.720473 -0.588015,-2.700491 -0.239561,-3.179611 0.152442,-0.348452 0.500901,-0.609789 0.892901,-0.609789 l 1.72048,-1.001795 c 0.26134,-0.152448 0.47911,-0.283116 0.67512,-0.370229 0.21778,-0.217782 0.5009,-0.435564 0.82756,-0.631568 z"
       id="path853" />
    <rect
       y="71.62674"
       x="73.056763"
       height="24.232824"
       width="24.232824"
       id="rect841"
       style="fill:none;fill-opacity:1;stroke:#ffffff;stroke-width:0.767175;stroke-opacity:1" />
  </g>
</svg>
