<?xml version="1.0" encoding="UTF-8" standalone="no"?>
<svg
   xmlns:dc="http://purl.org/dc/elements/1.1/"
   xmlns:cc="http://creativecommons.org/ns#"
   xmlns:rdf="http://www.w3.org/1999/02/22-rdf-syntax-ns#"
   xmlns:svg="http://www.w3.org/2000/svg"
   xmlns="http://www.w3.org/2000/svg"
   xmlns:sodipodi="http://sodipodi.sourceforge.net/DTD/sodipodi-0.dtd"
   xmlns:inkscape="http://www.inkscape.org/namespaces/inkscape"
   inkscape:export-ydpi="278"
   inkscape:export-xdpi="278"
   inkscape:export-filename="E:\Google Drive\QGIS_Graphics\Logo candidate 3.0 final files\qgis-logo_anita0.png"
   sodipodi:docname="logo-ext-qgis.svg"
   inkscape:version="1.0beta2 (2b71d25, 2019-12-03)"
   xml:space="preserve"
   enable-background="new 0 0 722.569 346.291"
   viewBox="0 0 153.226 144.52199"
   height="154.15678"
   width="163.44106"
   y="0px"
   x="0px"
   id="Layer_1"
   version="1.1"><metadata
     id="metadata46"><rdf:RDF><cc:Work
         rdf:about=""><dc:format>image/svg+xml</dc:format><dc:type
           rdf:resource="http://purl.org/dc/dcmitype/StillImage" /><dc:title></dc:title></cc:Work></rdf:RDF></metadata><defs
     id="defs44" /><sodipodi:namedview
     inkscape:document-rotation="0"
     fit-margin-left="0"
     fit-margin-bottom="0"
     fit-margin-right="0"
     fit-margin-top="0"
     inkscape:current-layer="Layer_1"
     inkscape:window-maximized="1"
     inkscape:window-y="23"
     inkscape:window-x="0"
     inkscape:cy="54.852251"
     inkscape:cx="365.13891"
     inkscape:zoom="1.2565238"
     showgrid="false"
     id="namedview42"
     inkscape:window-height="730"
     inkscape:window-width="1280"
     inkscape:pageshadow="2"
     inkscape:pageopacity="0"
     guidetolerance="10"
     gridtolerance="10"
     objecttolerance="10"
     borderopacity="1"
     bordercolor="#666666"
     pagecolor="#ffffff" /><polygon
     transform="translate(-110.928,-98.765001)"
     style="fill:#ee7913"
     id="polygon3"
     points="176,162 176,183.433 195,202.37 195,180 216.513,180 198.306,162 " /><linearGradient
     gradientTransform="translate(-110.928,-98.765001)"
     y2="100.4837"
     x2="347.78201"
     y1="247.7832"
     x1="350.02249"
     gradientUnits="userSpaceOnUse"
     id="SVGID_1_"><stop
       id="stop6"
       style="stop-color:#589632"
       offset="0" /><stop
       id="stop8"
       style="stop-color:#93B023"
       offset="1" /></linearGradient><linearGradient
     gradientTransform="translate(-110.928,-98.765001)"
     y2="98.822403"
     x2="456.98129"
     y1="246.1226"
     x1="459.22171"
     gradientUnits="userSpaceOnUse"
     id="SVGID_2_"><stop
       id="stop13"
       style="stop-color:#589632"
       offset="0" /><stop
       id="stop15"
       style="stop-color:#93B023"
       offset="1" /></linearGradient><linearGradient
     gradientTransform="translate(-110.928,-98.765001)"
     y2="97.388199"
     x2="551.26642"
     y1="244.6875"
     x1="553.50677"
     gradientUnits="userSpaceOnUse"
     id="SVGID_3_"><stop
       id="stop20"
       style="stop-color:#589632"
       offset="0" /><stop
       id="stop22"
       style="stop-color:#93B023"
       offset="1" /></linearGradient><linearGradient
     y2="101.4977"
     x2="232.211"
     y1="250.03419"
     x1="234.4702"
     gradientUnits="userSpaceOnUse"
     id="SVGID_4_"><stop
       id="stop27"
       style="stop-color:#589632"
       offset="0" /><stop
       id="stop29"
       style="stop-color:#93B023"
       offset="1" /></linearGradient><polygon
     transform="translate(-110.928,-98.765001)"
     style="fill:url(#SVGID_4_)"
     id="polygon31"
     points="204,211.34 240.782,248 264,248 264,226.946 225.617,189 204,189 " /><polygon
     transform="translate(-110.928,-98.765001)"
     style="fill:#f0e64a"
     id="polygon33"
     points="195,180 195,202.37 204,211.34 204,189 225.617,189 216.513,180 " /><linearGradient
     gradientTransform="translate(-110.928,-98.765001)"
     y2="102.9362"
     x2="186.5125"
     y1="250.2354"
     x1="188.7529"
     gradientUnits="userSpaceOnUse"
     id="SVGID_5_"><stop
       id="stop36"
       style="stop-color:#589632"
       offset="0" /><stop
       id="stop38"
       style="stop-color:#93B023"
       offset="1" /></linearGradient><path
     style="fill:url(#SVGID_5_)"
     inkscape:connector-curvature="0"
     id="path40"
     d="m 87.123998,118.099 c -3.259,0.75 -6.648,1.157 -10.144,1.157 -25.004999,0 -46.270999,-20.562002 -46.270999,-47.222002 0,-26.659999 21.032,-46.768999 46.270999,-46.768999 25.239002,0 45.336002,20.108 45.336002,46.768999 0,4.336 -0.54,8.508 -1.539,12.46 L 143.921,107.634 c 5.967,-10.455002 9.305,-22.611002 9.305,-35.778002 C 153.226,30.765999 120.435,0 76.511998,0 32.789999,0 0,30.563999 0,71.855998 0,113.35 32.790999,144.522 76.511998,144.522 c 11.287,0 21.835,-2.076 31.284002,-5.854 z" /><path
     sodipodi:nodetypes="ccccccc"
     inkscape:connector-curvature="0"
     style="fill:#ffffff;fill-opacity:0.172549"
     id="polygon4174"
     d="M 65.071998,63.234998 153.072,149.235 v -21.05469 l -38.38281,-37.945312 -9.10352,-9 -18.207032,-18 z" /></svg>
