<?xml version="1.0" encoding="UTF-8" standalone="no"?>
<svg
   xmlns:dc="http://purl.org/dc/elements/1.1/"
   xmlns:cc="http://creativecommons.org/ns#"
   xmlns:rdf="http://www.w3.org/1999/02/22-rdf-syntax-ns#"
   xmlns:svg="http://www.w3.org/2000/svg"
   xmlns="http://www.w3.org/2000/svg"
   xmlns:sodipodi="http://sodipodi.sourceforge.net/DTD/sodipodi-0.dtd"
   xmlns:inkscape="http://www.inkscape.org/namespaces/inkscape"
   width="230.10001"
   height="172.76601"
   viewBox="0 0 230.10001 172.76601"
   fill="none"
   version="1.1"
   id="svg866"
   sodipodi:docname="logo-ext-openrefine.svg"
   inkscape:version="1.0.1 (c497b03c, 2020-09-10)">
  <metadata
     id="metadata870">
    <rdf:RDF>
      <cc:Work
         rdf:about="">
        <dc:format>image/svg+xml</dc:format>
        <dc:type
           rdf:resource="http://purl.org/dc/dcmitype/StillImage" />
        <dc:title></dc:title>
      </cc:Work>
    </rdf:RDF>
  </metadata>
  <sodipodi:namedview
     pagecolor="#ffffff"
     bordercolor="#666666"
     borderopacity="1"
     objecttolerance="10"
     gridtolerance="10"
     guidetolerance="10"
     inkscape:pageopacity="0"
     inkscape:pageshadow="2"
     inkscape:window-width="1212"
     inkscape:window-height="783"
     id="namedview868"
     showgrid="false"
     fit-margin-top="0"
     fit-margin-left="0"
     fit-margin-right="0"
     fit-margin-bottom="0"
     inkscape:zoom="1.78"
     inkscape:cx="6.9540326"
     inkscape:cy="84.783"
     inkscape:window-x="232"
     inkscape:window-y="38"
     inkscape:window-maximized="0"
     inkscape:current-layer="svg866"
     inkscape:document-rotation="0" />
  <g
     clip-path="url(#clip0)"
     id="g859"
     style="filter:url(#filter874)"
     transform="translate(-84.8999,-115.217)">
    <path
       d="m 200.678,287.567 c -0.693,0.762 -1.248,0.554 -1.594,-0.347 0,-0.485 -0.07,-0.971 -0.763,-0.832 h -0.069 c 0.554,-1.248 -0.416,-2.149 -0.902,-3.12 -10.468,-21.075 -21.006,-42.082 -31.544,-63.158 -7.834,-15.598 -15.668,-31.197 -23.433,-46.796 0,-0.139 0.069,-0.347 0.069,-0.485 0.139,0 0.347,0 0.486,0 5.477,0.901 11.023,0.416 16.569,0.485 32.584,0.277 65.238,-0.832 97.822,-0.485 0,0.208 0,0.346 0,0.554 -0.416,1.04 -0.832,2.08 -1.317,3.12 -17.679,35.357 -35.357,70.784 -53.036,106.141 -0.485,0.971 -1.664,1.942 -0.901,3.328 l -0.139,0.069 c -1.109,-0.207 -0.971,0.832 -1.248,1.526 z"
       fill="#009ffe"
       id="path835" />
    <path
       d="m 257.389,172.759 c -32.585,-0.346 -65.238,0.763 -97.822,0.486 -5.547,-0.07 -11.093,0.415 -16.57,-0.486 0.693,-0.762 1.317,-1.594 2.08,-2.288 17.54,-17.54 35.08,-35.08 52.62,-52.62 0.693,-0.693 1.317,-1.525 2.011,-2.357 0.346,0 0.623,0 0.97,0 0.693,0.763 1.317,1.595 2.011,2.357 17.54,17.54 35.08,35.08 52.62,52.62 0.762,0.694 1.386,1.526 2.08,2.288 z"
       fill="#00c7fe"
       id="path837" />
    <path
       d="m 202.134,285.834 c -0.763,-1.387 0.416,-2.288 0.901,-3.328 17.679,-35.426 35.358,-70.784 53.036,-106.141 0.486,-0.971 0.902,-2.08 1.318,-3.12 0.208,-0.139 0.346,-0.347 0.554,-0.485 4.16,0.762 8.389,0.485 12.618,0.485 14.698,0 29.326,0 44.023,0 0,0.208 0,0.347 0,0.555 -2.773,3.258 -6.309,5.823 -9.082,8.943 -3.743,4.229 -7.764,8.111 -11.785,12.063 -19.967,20.036 -39.864,40.141 -60.039,59.9 -5.061,4.991 -10.052,10.122 -15.183,15.113 -4.783,4.645 -9.636,9.36 -14.142,14.282 -0.555,0.762 -1.179,1.456 -2.219,1.733 z"
       fill="#0178fe"
       id="path839" />
    <path
       d="m 142.442,173.244 c 7.834,15.599 15.669,31.198 23.433,46.797 10.538,21.075 21.076,42.082 31.545,63.158 0.485,0.97 1.455,1.802 0.901,3.119 -0.555,-0.416 -1.109,-0.832 -1.595,-1.317 -36.744,-36.813 -73.488,-73.626 -110.3008,-110.37 -0.416,-0.416 -0.832,-0.902 -1.1786,-1.318 19.0654,-0.069 38.1304,-0.069 57.1954,-0.069 z"
       fill="#01c7fe"
       id="path841" />
    <path
       d="m 142.442,173.245 c -19.065,0 -38.13,0 -57.1954,0 0,-0.208 0,-0.416 0,-0.555 4.0903,-4.16 8.25,-8.389 12.4097,-12.548 14.2817,-14.282 28.5637,-28.564 42.9137,-42.845 0.624,-0.624 1.318,-1.11 1.942,-1.664 0,19.065 0,38.13 0,57.196 0,0.138 -0.07,0.277 -0.07,0.416 z"
       fill="#01fefe"
       id="path843" />
    <path
       d="m 257.943,172.759 c -0.208,0.139 -0.347,0.347 -0.555,0.486 0,-0.208 0,-0.347 0,-0.555 -0.693,-0.763 -1.317,-1.595 -2.08,-2.288 -17.54,-17.54 -35.08,-35.08 -52.62,-52.62 -0.693,-0.693 -1.386,-1.525 -2.01,-2.357 0.693,-0.069 1.386,-0.208 2.01,-0.208 17.471,0 34.942,0 52.412,0 0.902,0 1.942,-0.208 2.773,0.347 0.07,19.065 0.07,38.13 0.07,57.195 z"
       fill="#00b3fe"
       id="path845" />
    <path
       d="m 142.512,172.76 c 0,-19.065 0,-38.131 0,-57.196 0.762,-0.485 1.664,-0.346 2.496,-0.346 17.54,0 35.08,0 52.62,0 0.693,0 1.386,0.138 2.079,0.208 -0.693,0.762 -1.317,1.594 -2.01,2.357 -17.54,17.54 -35.08,35.08 -52.62,52.62 -0.693,0.693 -1.387,1.525 -2.08,2.288 -0.139,0.069 -0.347,0.069 -0.485,0.069 z"
       fill="#00dbfe"
       id="path847" />
    <path
       d="m 257.943,172.759 c 0,-19.065 0,-38.13 0,-57.126 0.624,0.554 1.317,1.04 1.941,1.664 17.887,17.817 35.704,35.704 53.521,53.59 0.694,0.694 1.872,1.11 1.664,2.427 -0.138,0 -0.277,0 -0.416,0 -14.697,0 -29.326,0 -44.023,0 -4.298,-0.069 -8.527,0.208 -12.687,-0.555 z"
       fill="#01a0fe"
       id="path849" />
    <path
       d="m 200.678,287.567 c 0.277,-0.694 0.069,-1.734 1.317,-1.664 -0.277,0.624 -0.347,1.456 -1.317,1.664 z"
       fill="#0178fe"
       id="path851" />
    <path
       d="m 198.39,286.319 c 0.693,-0.069 0.693,0.416 0.763,0.832 -0.278,-0.277 -0.486,-0.555 -0.763,-0.832 z"
       fill="#01c7fe"
       id="path853" />
    <path
       d="m 85.2465,172.69 c 0,0.208 0,0.416 0,0.555 -0.1386,-0.069 -0.2773,-0.139 -0.3466,-0.208 0.1387,-0.069 0.2773,-0.208 0.3466,-0.347 z"
       fill="#00e3fe"
       id="path855" />
    <path
       d="m 314.584,173.244 c 0.139,0 0.277,0 0.416,0 0.069,0.347 -0.139,0.485 -0.416,0.555 0,-0.208 0,-0.347 0,-0.555 z"
       fill="#008bfe"
       id="path857" />
  </g>
  <defs
     id="defs864">
    <clipPath
       id="clip0">
      <rect
         width="230.10001"
         height="172.76601"
         fill="#ffffff"
         transform="translate(84.8999,115.217)"
         id="rect861"
         x="0"
         y="0" />
    </clipPath>
    <filter
       style="color-interpolation-filters:sRGB"
       inkscape:label="Greyscale"
       id="filter874">
      <feColorMatrix
         values="0.21 0.72 0.072 0 0 0.21 0.72 0.072 0 0 0.21 0.72 0.072 0 0 0 0 0 1 0 "
         id="feColorMatrix872" />
    </filter>
  </defs>
</svg>
