<?xml version="1.0" encoding="UTF-8" standalone="no"?>
<svg
   xmlns:dc="http://purl.org/dc/elements/1.1/"
   xmlns:cc="http://creativecommons.org/ns#"
   xmlns:rdf="http://www.w3.org/1999/02/22-rdf-syntax-ns#"
   xmlns:svg="http://www.w3.org/2000/svg"
   xmlns="http://www.w3.org/2000/svg"
   xmlns:sodipodi="http://sodipodi.sourceforge.net/DTD/sodipodi-0.dtd"
   xmlns:inkscape="http://www.inkscape.org/namespaces/inkscape"
   width="228.1131mm"
   height="211.48213mm"
   viewBox="0 0 228.1131 211.48213"
   version="1.1"
   id="svg141"
   inkscape:version="1.0.1 (c497b03c, 2020-09-10)"
   sodipodi:docname="volley-logo-light.svg">
  <defs
     id="defs135" />
  <sodipodi:namedview
     id="base"
     pagecolor="#ffffff"
     bordercolor="#666666"
     borderopacity="1.0"
     inkscape:pageopacity="0.0"
     inkscape:pageshadow="2"
     inkscape:zoom="0.5"
     inkscape:cx="216.27401"
     inkscape:cy="511.74766"
     inkscape:document-units="mm"
     inkscape:current-layer="layer1"
     inkscape:document-rotation="0"
     showgrid="false"
     fit-margin-top="0"
     fit-margin-left="0"
     fit-margin-right="0"
     fit-margin-bottom="0"
     inkscape:window-width="1252"
     inkscape:window-height="943"
     inkscape:window-x="111"
     inkscape:window-y="25"
     inkscape:window-maximized="0" />
  <metadata
     id="metadata138">
    <rdf:RDF>
      <cc:Work
         rdf:about="">
        <dc:format>image/svg+xml</dc:format>
        <dc:type
           rdf:resource="http://purl.org/dc/dcmitype/StillImage" />
        <dc:title />
      </cc:Work>
    </rdf:RDF>
  </metadata>
  <g
     inkscape:label="Layer 1"
     inkscape:groupmode="layer"
     id="layer1"
     transform="translate(25.702376,-30.238094)">
    <path
       id="path143"
       style="fill:#f9f9f9;fill-rule:evenodd;stroke-width:0.611804"
       d="m 202.41072,57.738094 a 27.5,27.5 0 0 1 -27.5,27.5 27.5,27.5 0 0 1 -27.5,-27.5 27.5,27.5 0 0 1 27.5,-27.5 27.5,27.5 0 0 1 27.5,27.5 z" />
    <path
       id="circle145"
       style="fill:#f9f9f9;fill-rule:evenodd;stroke-width:0.611804"
       d="m 29.297624,58.494045 a 27.5,27.5 0 0 1 -27.4999997,27.5 27.5,27.5 0 0 1 -27.5000003,-27.5 27.5,27.5 0 0 1 27.5000003,-27.5 27.5,27.5 0 0 1 27.4999997,27.5 z" />
    <path
       id="circle147"
       style="fill:#f9f9f9;fill-rule:evenodd;stroke-width:0.611804"
       d="m 111.92323,214.22023 a 27.5,27.5 0 0 1 -27.500005,27.5 27.5,27.5 0 0 1 -27.5,-27.5 27.5,27.5 0 0 1 27.5,-27.5 27.5,27.5 0 0 1 27.500005,27.5 z" />
    <path
       style="fill:#f9f9f9;stroke:#f9f9f9;stroke-width:0.529167;stroke-linecap:butt;stroke-linejoin:miter;stroke-miterlimit:4;stroke-dasharray:none;stroke-opacity:1"
       d="M 14.040797,83.103931 83.246905,187.10563"
       id="path149" />
    <path
       style="fill:#f9f9f9;stroke:#f9f9f9;stroke-width:0.529167;stroke-linecap:butt;stroke-linejoin:miter;stroke-miterlimit:4;stroke-dasharray:none;stroke-opacity:1"
       d="M 159.80526,80.726359 83.246905,187.10563"
       id="path151" />
  </g>
</svg>
